Normalized EMG Linear Envelopes
nRows=43
nColumns=17

endheader
time	        VM	        VL	        RF	       GRA	        TA	   ADDLONG	   SEMIMEM	      BFLH	        GM	        GL	       TFL	   GLUTMAX	   GLUTMED	      PIRI	    OBTINT	        QF	
1.735	  0.033756	  0.040706	  0.086030	  0.039273	  0.107205	  0.045616	  0.002410	  0.014296	  0.005358	  0.011969	  0.043175	  0.000000	  0.102191	  0.317450	  1.080422	  0.088413	
1.7355	  0.033732	  0.040852	  0.084979	  0.038754	  0.106123	  0.045350	  0.002205	  0.013827	  0.005253	  0.011877	  0.042030	  0.000000	  0.103347	  0.320236	  1.089675	  0.089029	
1.736	  0.033713	  0.040999	  0.083948	  0.038243	  0.105056	  0.045079	  0.002011	  0.013364	  0.005151	  0.011786	  0.040908	  0.000000	  0.104499	  0.322985	  1.099081	  0.089647	
1.7365	  0.033699	  0.041148	  0.082936	  0.037742	  0.104002	  0.044804	  0.001830	  0.012909	  0.005053	  0.011696	  0.039809	  0.000000	  0.105646	  0.325698	  1.108636	  0.090268	
1.737	  0.033690	  0.041297	  0.081943	  0.037250	  0.102963	  0.044523	  0.001662	  0.012461	  0.004957	  0.011607	  0.038732	  0.000000	  0.106789	  0.328372	  1.118334	  0.090891	
1.7375	  0.033686	  0.041448	  0.080968	  0.036768	  0.101938	  0.044237	  0.001506	  0.012021	  0.004864	  0.011519	  0.037677	  0.000000	  0.107926	  0.331006	  1.128169	  0.091516	
1.738	  0.033686	  0.041598	  0.080011	  0.036295	  0.100928	  0.043947	  0.001364	  0.011589	  0.004774	  0.011432	  0.036645	  0.000000	  0.109057	  0.333598	  1.138135	  0.092143	
1.7385	  0.033691	  0.041749	  0.079072	  0.035832	  0.099932	  0.043651	  0.001236	  0.011166	  0.004687	  0.011346	  0.035635	  0.000000	  0.110182	  0.336146	  1.148225	  0.092772	
1.739	  0.033701	  0.041900	  0.078149	  0.035379	  0.098951	  0.043351	  0.001121	  0.010752	  0.004604	  0.011260	  0.034647	  0.000000	  0.111301	  0.338649	  1.158432	  0.093404	
1.7395	  0.033714	  0.042051	  0.077243	  0.034936	  0.097985	  0.043047	  0.001021	  0.010347	  0.004524	  0.011176	  0.033680	  0.000000	  0.112413	  0.341105	  1.168749	  0.094039	
1.74	  0.033733	  0.042200	  0.076352	  0.034503	  0.097033	  0.042738	  0.000936	  0.009952	  0.004448	  0.011092	  0.032735	  0.000000	  0.113518	  0.343513	  1.179168	  0.094676	
1.7405	  0.033755	  0.042349	  0.075477	  0.034081	  0.096096	  0.042425	  0.000865	  0.009567	  0.004375	  0.011009	  0.031811	  0.000000	  0.114616	  0.345872	  1.189682	  0.095316	
1.741	  0.033781	  0.042496	  0.074616	  0.033670	  0.095174	  0.042108	  0.000810	  0.009192	  0.004305	  0.010927	  0.030908	  0.000000	  0.115706	  0.348179	  1.200283	  0.095959	
1.7415	  0.033811	  0.042642	  0.073769	  0.033269	  0.094267	  0.041786	  0.000771	  0.008828	  0.004240	  0.010846	  0.030025	  0.000000	  0.116788	  0.350434	  1.210961	  0.096606	
1.742	  0.033845	  0.042786	  0.072936	  0.032879	  0.093374	  0.041461	  0.000748	  0.008476	  0.004178	  0.010766	  0.029164	  0.000000	  0.117862	  0.352636	  1.221709	  0.097257	
1.7425	  0.033883	  0.042927	  0.072115	  0.032500	  0.092495	  0.041132	  0.000741	  0.008135	  0.004120	  0.010686	  0.028322	  0.000000	  0.118928	  0.354783	  1.232516	  0.097911	
1.743	  0.033923	  0.043065	  0.071306	  0.032132	  0.091631	  0.040800	  0.000752	  0.007807	  0.004065	  0.010607	  0.027501	  0.000000	  0.119984	  0.356874	  1.243375	  0.098570	
1.7435	  0.033968	  0.043201	  0.070509	  0.031775	  0.090782	  0.040465	  0.000779	  0.007491	  0.004015	  0.010529	  0.026700	  0.000000	  0.121031	  0.358908	  1.254275	  0.099233	
1.744	  0.034015	  0.043333	  0.069722	  0.031430	  0.089946	  0.040127	  0.000825	  0.007188	  0.003969	  0.010452	  0.025919	  0.000000	  0.122067	  0.360883	  1.265208	  0.099901	
1.7445	  0.034065	  0.043461	  0.068946	  0.031096	  0.089125	  0.039786	  0.000888	  0.006898	  0.003927	  0.010375	  0.025157	  0.000000	  0.123093	  0.362798	  1.276162	  0.100574	
1.745	  0.034118	  0.043585	  0.068179	  0.030774	  0.088317	  0.039442	  0.000970	  0.006623	  0.003890	  0.010298	  0.024414	  0.000000	  0.124108	  0.364653	  1.287128	  0.101253	
1.7455	  0.034174	  0.043705	  0.067421	  0.030464	  0.087523	  0.039097	  0.001070	  0.006362	  0.003857	  0.010223	  0.023690	  0.000000	  0.125112	  0.366445	  1.298095	  0.101938	
1.746	  0.034232	  0.043820	  0.066671	  0.030166	  0.086743	  0.038749	  0.001190	  0.006116	  0.003828	  0.010147	  0.022985	  0.000000	  0.126104	  0.368174	  1.309054	  0.102630	
1.7465	  0.034292	  0.043929	  0.065928	  0.029879	  0.085976	  0.038399	  0.001329	  0.005885	  0.003803	  0.010073	  0.022298	  0.000000	  0.127083	  0.369840	  1.319992	  0.103329	
1.747	  0.034354	  0.044034	  0.065192	  0.029605	  0.085222	  0.038047	  0.001488	  0.005671	  0.003784	  0.009998	  0.021629	  0.000000	  0.128050	  0.371441	  1.330901	  0.104037	
1.7475	  0.034418	  0.044132	  0.064463	  0.029344	  0.084481	  0.037694	  0.001668	  0.005472	  0.003769	  0.009924	  0.020979	  0.000000	  0.129003	  0.372978	  1.341768	  0.104753	
1.748	  0.034484	  0.044225	  0.063739	  0.029094	  0.083753	  0.037339	  0.001868	  0.005290	  0.003759	  0.009850	  0.020346	  0.000210	  0.129944	  0.374449	  1.352583	  0.105478	
1.7485	  0.034551	  0.044311	  0.063019	  0.028858	  0.083037	  0.036983	  0.002090	  0.005125	  0.003754	  0.009777	  0.019730	  0.000727	  0.130871	  0.375857	  1.363333	  0.106213	
1.749	  0.034620	  0.044390	  0.062304	  0.028634	  0.082333	  0.036627	  0.002333	  0.004978	  0.003754	  0.009704	  0.019132	  0.001266	  0.131784	  0.377199	  1.374009	  0.106959	
1.7495	  0.034689	  0.044461	  0.061593	  0.028423	  0.081641	  0.036269	  0.002598	  0.004849	  0.003759	  0.009631	  0.018550	  0.001830	  0.132683	  0.378475	  1.384597	  0.107715	
1.75	  0.034760	  0.044526	  0.060885	  0.028224	  0.080960	  0.035911	  0.002886	  0.004739	  0.003769	  0.009558	  0.017986	  0.002418	  0.133569	  0.379687	  1.395087	  0.108483	
1.7505	  0.034831	  0.044582	  0.060181	  0.028039	  0.080291	  0.035554	  0.003196	  0.004647	  0.003785	  0.009486	  0.017437	  0.003031	  0.134441	  0.380833	  1.405466	  0.109263	
1.751	  0.034902	  0.044630	  0.059478	  0.027867	  0.079634	  0.035196	  0.003529	  0.004575	  0.003806	  0.009414	  0.016905	  0.003670	  0.135299	  0.381913	  1.415722	  0.110056	
1.7515	  0.034974	  0.044669	  0.058778	  0.027708	  0.078987	  0.034838	  0.003886	  0.004523	  0.003833	  0.009342	  0.016390	  0.004334	  0.136143	  0.382927	  1.425843	  0.110862	
1.752	  0.035046	  0.044700	  0.058081	  0.027562	  0.078351	  0.034481	  0.004267	  0.004491	  0.003866	  0.009270	  0.015889	  0.005025	  0.136975	  0.383874	  1.435815	  0.111682	
1.7525	  0.035118	  0.044721	  0.057385	  0.027430	  0.077726	  0.034124	  0.004673	  0.004481	  0.003904	  0.009198	  0.015405	  0.005743	  0.137793	  0.384755	  1.445625	  0.112516	
1.753	  0.035189	  0.044732	  0.056691	  0.027312	  0.077111	  0.033769	  0.005103	  0.004491	  0.003948	  0.009126	  0.014936	  0.006489	  0.138598	  0.385570	  1.455260	  0.113365	
1.7535	  0.035261	  0.044734	  0.055998	  0.027207	  0.076506	  0.033414	  0.005559	  0.004524	  0.003999	  0.009054	  0.014482	  0.007262	  0.139390	  0.386320	  1.464706	  0.114228	
1.754	  0.035332	  0.044726	  0.055307	  0.027115	  0.075911	  0.033060	  0.006040	  0.004579	  0.004055	  0.008983	  0.014044	  0.008064	  0.140171	  0.387005	  1.473948	  0.115108	
1.7545	  0.035402	  0.044708	  0.054616	  0.027038	  0.075326	  0.032708	  0.006547	  0.004656	  0.004118	  0.008911	  0.013619	  0.008896	  0.140939	  0.387627	  1.482973	  0.116003	
1.755	  0.035473	  0.044679	  0.053927	  0.026974	  0.074750	  0.032358	  0.007080	  0.004757	  0.004187	  0.008839	  0.013210	  0.009757	  0.141695	  0.388187	  1.491765	  0.116914	
1.7555	  0.035542	  0.044640	  0.053238	  0.026925	  0.074184	  0.032009	  0.007641	  0.004882	  0.004263	  0.008768	  0.012815	  0.010648	  0.142440	  0.388687	  1.500309	  0.117842	
1.756	  0.035611	  0.044591	  0.052550	  0.026889	  0.073626	  0.031662	  0.008229	  0.005031	  0.004346	  0.008696	  0.012434	  0.011570	  0.143173	  0.389129	  1.508592	  0.118787	
